# xmcd
#
# Track frame offsets:
#	150
#	13437
#	26839
#	44269
#	56706
#	71118
#	88586
#	104650
#	117668
#	131836
#	142174
#	156432
#	169658
#	186640
#	200367
#
# Disc length: 2869 seconds
#
# Revision: 1
# Processed by: cddbd v1.5.2PL0 Copyright (c) Steve Scherf et al.
# Submitted via: audiograbber 1.83.01
#
DISCID=f40b330f
DTITLE=George Strait - Chartbuster CDG60051
DYEAR=1900
DGENRE=Karaoke
TTITLE0=The  Chair
TTITLE1=Fool Hearted Memory
TTITLE2=I've Come To Expect It From You 
TTITLE3=The Fireman
TTITLE4=Ocean Front Property
TTITLE5=Famous Last Words Of A Fool 
TTITLE6=Baby's Gotten Good At Goodbye
TTITLE7=If I Know Me 
TTITLE8=You Know Me Better Than That 
TTITLE9=Right Or Wrong 
TTITLE10=A Fire I Can't Put Out
TTITLE11=When Did You Stop Loving Me 
TTITLE12=The Chill Of An Early Fall
TTITLE13=Love Bug
TTITLE14=Easy Come, Easy Go 
EXTD=
EXTT0=
EXTT1=
EXTT2=
EXTT3=
EXTT4=
EXTT5=
EXTT6=
EXTT7=
EXTT8=
EXTT9=
EXTT10=
EXTT11=
EXTT12=
EXTT13=
EXTT14=
PLAYORDER=
